<svg xmlns="http://www.w3.org/2000/svg" viewBox="0 0 100 100">
  <!-- Engrenage bleu Aurelia -->
  <path fill="#1B3A7A" d="M50 20a30 30 0 1 0 0 60A30 30 0 0 0 50 20zm0 50a20 20 0 1 1 0-40 20 20 0 0 1 0 40z"/>
  <path fill="#1B3A7A" d="M47 15h6v8h-6zM47 77h6v8h-6zM15 47h8v6h-8zM77 47h8v6h-8zM25.5 22.1l4.2 4.2-5.7 5.7-4.2-4.2zM76 68.1l4.2 4.2-5.7 5.7-4.2-4.2zM68 20.1l5.7 5.7-4.2 4.2-5.7-5.7zM22.1 70.5l5.7 5.7-4.2 4.2-5.7-5.7z"/>
  <!-- Lettre A au centre -->
  <text x="50" y="56" text-anchor="middle" font-family="DM Sans, sans-serif" font-size="22" font-weight="700" fill="#1B3A7A">A</text>
  <!-- Clé verte -->
  <path fill="#2E8B57" d="M62 44a8 8 0 0 0-8 8c0 1.4.4 2.7 1 3.8L42 69a2 2 0 0 0 2.8 2.8l13.2-13.2c1.1.6 2.4 1 3.8 1a8 8 0 0 0 0-16zm0 12a4 4 0 1 1 0-8 4 4 0 0 1 0 8z"/>
</svg>
